<mxfile host="app.diagrams.net" modified="2022-11-14T17:28:24.383Z" agent="5.0 (Windows NT 10.0; Win64; x64) AppleWebKit/537.36 (KHTML, like Gecko) Chrome/106.0.0.0 Safari/537.36 OPR/92.0.0.0" etag="nFxHk2e76zlGL3KWcBYW" version="20.5.3" type="github">
  <diagram id="QvCQczVAtm9LW1QxNMbe" name="Pagina-1">
    <mxGraphModel dx="953" dy="527" grid="1" gridSize="10" guides="1" tooltips="1" connect="1" arrows="1" fold="1" page="1" pageScale="1" pageWidth="827" pageHeight="1169" math="0" shadow="0">
      <root>
        <mxCell id="0" />
        <mxCell id="1" parent="0" />
        <mxCell id="Roxm8BrrfHJp3H4m_8as-25" value="settings" style="shape=umlFrame;whiteSpace=wrap;html=1;" vertex="1" parent="1">
          <mxGeometry x="160" y="150" width="540" height="200" as="geometry" />
        </mxCell>
        <mxCell id="Roxm8BrrfHJp3H4m_8as-1" value="&lt;b&gt;SettingsView&lt;/b&gt;" style="html=1;" vertex="1" parent="1">
          <mxGeometry x="200" y="390" width="90" height="30" as="geometry" />
        </mxCell>
        <mxCell id="Roxm8BrrfHJp3H4m_8as-2" value="&lt;b&gt;AudioTab&lt;/b&gt;" style="html=1;" vertex="1" parent="1">
          <mxGeometry x="200" y="250" width="90" height="30" as="geometry" />
        </mxCell>
        <mxCell id="Roxm8BrrfHJp3H4m_8as-3" value="&lt;b&gt;CustomizationTab&lt;/b&gt;" style="html=1;" vertex="1" parent="1">
          <mxGeometry x="440" y="250" width="120" height="30" as="geometry" />
        </mxCell>
        <mxCell id="Roxm8BrrfHJp3H4m_8as-4" value="&lt;b&gt;VideoTab&lt;/b&gt;" style="html=1;" vertex="1" parent="1">
          <mxGeometry x="590" y="250" width="90" height="30" as="geometry" />
        </mxCell>
        <mxCell id="Roxm8BrrfHJp3H4m_8as-5" value="&lt;b&gt;ControlsTab&lt;/b&gt;" style="html=1;" vertex="1" parent="1">
          <mxGeometry x="320" y="250" width="90" height="30" as="geometry" />
        </mxCell>
        <mxCell id="Roxm8BrrfHJp3H4m_8as-6" value="&lt;b&gt;View&lt;/b&gt;" style="html=1;" vertex="1" parent="1">
          <mxGeometry x="40" y="250" width="80" height="30" as="geometry" />
        </mxCell>
        <mxCell id="Roxm8BrrfHJp3H4m_8as-7" value="" style="shape=requiredInterface;html=1;verticalLabelPosition=bottom;sketch=0;rotation=90;aspect=fixed;" vertex="1" parent="1">
          <mxGeometry x="239.5" y="104" width="11" height="22" as="geometry" />
        </mxCell>
        <mxCell id="Roxm8BrrfHJp3H4m_8as-8" value="ILogic" style="text;html=1;strokeColor=none;fillColor=none;align=center;verticalAlign=middle;whiteSpace=wrap;rounded=0;" vertex="1" parent="1">
          <mxGeometry x="181.5" y="100" width="60" height="30" as="geometry" />
        </mxCell>
        <mxCell id="Roxm8BrrfHJp3H4m_8as-9" value="" style="endArrow=none;html=1;rounded=0;entryX=1;entryY=0.5;entryDx=0;entryDy=0;entryPerimeter=0;exitX=0.5;exitY=0;exitDx=0;exitDy=0;" edge="1" parent="1" source="Roxm8BrrfHJp3H4m_8as-2" target="Roxm8BrrfHJp3H4m_8as-7">
          <mxGeometry width="50" height="50" relative="1" as="geometry">
            <mxPoint x="390" y="320" as="sourcePoint" />
            <mxPoint x="440" y="270" as="targetPoint" />
          </mxGeometry>
        </mxCell>
        <mxCell id="Roxm8BrrfHJp3H4m_8as-11" value="" style="endArrow=diamondThin;endFill=1;endSize=24;html=1;rounded=0;exitX=0.5;exitY=1;exitDx=0;exitDy=0;entryX=0.5;entryY=0;entryDx=0;entryDy=0;" edge="1" parent="1" source="Roxm8BrrfHJp3H4m_8as-2" target="Roxm8BrrfHJp3H4m_8as-1">
          <mxGeometry width="160" relative="1" as="geometry">
            <mxPoint x="340" y="130" as="sourcePoint" />
            <mxPoint x="258" y="450" as="targetPoint" />
          </mxGeometry>
        </mxCell>
        <mxCell id="Roxm8BrrfHJp3H4m_8as-13" value="" style="endArrow=open;endSize=12;dashed=1;html=1;rounded=0;exitX=0;exitY=0.5;exitDx=0;exitDy=0;entryX=1;entryY=0.5;entryDx=0;entryDy=0;" edge="1" parent="1" source="Roxm8BrrfHJp3H4m_8as-2" target="Roxm8BrrfHJp3H4m_8as-6">
          <mxGeometry x="-0.4425" y="-39" width="160" relative="1" as="geometry">
            <mxPoint x="300" y="50" as="sourcePoint" />
            <mxPoint x="300" y="150" as="targetPoint" />
            <mxPoint as="offset" />
          </mxGeometry>
        </mxCell>
        <mxCell id="Roxm8BrrfHJp3H4m_8as-16" value="" style="endArrow=none;html=1;rounded=0;exitX=0.5;exitY=0;exitDx=0;exitDy=0;" edge="1" parent="1" source="Roxm8BrrfHJp3H4m_8as-5">
          <mxGeometry width="50" height="50" relative="1" as="geometry">
            <mxPoint x="172.5" y="200" as="sourcePoint" />
            <mxPoint x="245" y="200" as="targetPoint" />
            <Array as="points">
              <mxPoint x="365" y="200" />
            </Array>
          </mxGeometry>
        </mxCell>
        <mxCell id="Roxm8BrrfHJp3H4m_8as-18" value="" style="endArrow=none;html=1;rounded=0;exitX=0.5;exitY=0;exitDx=0;exitDy=0;" edge="1" parent="1" source="Roxm8BrrfHJp3H4m_8as-3">
          <mxGeometry width="50" height="50" relative="1" as="geometry">
            <mxPoint x="390" y="320" as="sourcePoint" />
            <mxPoint x="360" y="200" as="targetPoint" />
            <Array as="points">
              <mxPoint x="500" y="200" />
            </Array>
          </mxGeometry>
        </mxCell>
        <mxCell id="Roxm8BrrfHJp3H4m_8as-20" value="" style="endArrow=none;html=1;rounded=0;exitX=0.5;exitY=0;exitDx=0;exitDy=0;" edge="1" parent="1" source="Roxm8BrrfHJp3H4m_8as-4">
          <mxGeometry width="50" height="50" relative="1" as="geometry">
            <mxPoint x="390" y="320" as="sourcePoint" />
            <mxPoint x="500" y="200" as="targetPoint" />
            <Array as="points">
              <mxPoint x="635" y="200" />
            </Array>
          </mxGeometry>
        </mxCell>
        <mxCell id="Roxm8BrrfHJp3H4m_8as-22" value="" style="endArrow=none;html=1;rounded=0;exitX=0.5;exitY=1;exitDx=0;exitDy=0;" edge="1" parent="1" source="Roxm8BrrfHJp3H4m_8as-5">
          <mxGeometry width="50" height="50" relative="1" as="geometry">
            <mxPoint x="375" y="260" as="sourcePoint" />
            <mxPoint x="245" y="330" as="targetPoint" />
            <Array as="points">
              <mxPoint x="365" y="330" />
            </Array>
          </mxGeometry>
        </mxCell>
        <mxCell id="Roxm8BrrfHJp3H4m_8as-23" value="" style="endArrow=none;html=1;rounded=0;exitX=0.5;exitY=1;exitDx=0;exitDy=0;" edge="1" parent="1" source="Roxm8BrrfHJp3H4m_8as-3">
          <mxGeometry width="50" height="50" relative="1" as="geometry">
            <mxPoint x="510" y="259.9999999999999" as="sourcePoint" />
            <mxPoint x="360" y="330" as="targetPoint" />
            <Array as="points">
              <mxPoint x="500" y="330" />
            </Array>
          </mxGeometry>
        </mxCell>
        <mxCell id="Roxm8BrrfHJp3H4m_8as-24" value="" style="endArrow=none;html=1;rounded=0;exitX=0.5;exitY=1;exitDx=0;exitDy=0;" edge="1" parent="1" source="Roxm8BrrfHJp3H4m_8as-4">
          <mxGeometry width="50" height="50" relative="1" as="geometry">
            <mxPoint x="520" y="269.9999999999999" as="sourcePoint" />
            <mxPoint x="500" y="330" as="targetPoint" />
            <Array as="points">
              <mxPoint x="635" y="330" />
            </Array>
          </mxGeometry>
        </mxCell>
      </root>
    </mxGraphModel>
  </diagram>
</mxfile>
